<mxfile host="app.diagrams.net" modified="2024-03-18T09:53:27.773Z" agent="Mozilla/5.0 (Windows NT 10.0; Win64; x64) AppleWebKit/537.36 (KHTML, like Gecko) Chrome/122.0.0.0 Safari/537.36" etag="f5KtHZGHy-ZgXarzEzXA" version="24.0.7" type="google">
  <diagram id="R2lEEEUBdFMjLlhIrx00" name="Page-1">
    <mxGraphModel grid="1" page="1" gridSize="10" guides="1" tooltips="1" connect="1" arrows="1" fold="1" pageScale="1" pageWidth="850" pageHeight="1100" math="0" shadow="0" extFonts="Permanent Marker^https://fonts.googleapis.com/css?family=Permanent+Marker">
      <root>
        <mxCell id="0" />
        <mxCell id="1" parent="0" />
        <mxCell id="5Mt-i5ctGpd2xIFihAlp-14" value="Grado" style="swimlane;childLayout=stackLayout;horizontal=1;startSize=50;horizontalStack=0;rounded=1;fontSize=14;fontStyle=0;strokeWidth=2;resizeParent=0;resizeLast=1;shadow=0;dashed=0;align=center;arcSize=4;whiteSpace=wrap;html=1;" vertex="1" parent="1">
          <mxGeometry x="40" y="80" width="160" height="150" as="geometry" />
        </mxCell>
        <mxCell id="5Mt-i5ctGpd2xIFihAlp-15" value="+&lt;u&gt;Codigo Unico&lt;/u&gt;&lt;br&gt;+Codigo Grado&lt;br&gt;+Nombre Grado&lt;div&gt;+Url programa&lt;/div&gt;&lt;div&gt;+Creditos&lt;/div&gt;&lt;div&gt;+Tipo Grado&lt;/div&gt;" style="align=left;strokeColor=none;fillColor=none;spacingLeft=4;fontSize=12;verticalAlign=top;resizable=0;rotatable=0;part=1;html=1;" vertex="1" parent="5Mt-i5ctGpd2xIFihAlp-14">
          <mxGeometry y="50" width="160" height="100" as="geometry" />
        </mxCell>
        <mxCell id="5Mt-i5ctGpd2xIFihAlp-16" value="Curso" style="swimlane;childLayout=stackLayout;horizontal=1;startSize=50;horizontalStack=0;rounded=1;fontSize=14;fontStyle=0;strokeWidth=2;resizeParent=0;resizeLast=1;shadow=0;dashed=0;align=center;arcSize=4;whiteSpace=wrap;html=1;" vertex="1" parent="1">
          <mxGeometry x="480" y="80" width="160" height="150" as="geometry" />
        </mxCell>
        <mxCell id="5Mt-i5ctGpd2xIFihAlp-17" value="+&lt;u&gt;Identificador Unico&lt;/u&gt;&lt;br&gt;+Nivel Curso&lt;br&gt;+Codigo Curso&lt;div&gt;+Total Creditos&lt;/div&gt;&lt;div&gt;+Url programa&lt;/div&gt;" style="align=left;strokeColor=none;fillColor=none;spacingLeft=4;fontSize=12;verticalAlign=top;resizable=0;rotatable=0;part=1;html=1;" vertex="1" parent="5Mt-i5ctGpd2xIFihAlp-16">
          <mxGeometry y="50" width="160" height="100" as="geometry" />
        </mxCell>
        <mxCell id="5Mt-i5ctGpd2xIFihAlp-18" value="Grupo" style="swimlane;childLayout=stackLayout;horizontal=1;startSize=50;horizontalStack=0;rounded=1;fontSize=14;fontStyle=0;strokeWidth=2;resizeParent=0;resizeLast=1;shadow=0;dashed=0;align=center;arcSize=4;whiteSpace=wrap;html=1;" vertex="1" parent="1">
          <mxGeometry x="920" y="80" width="160" height="120" as="geometry" />
        </mxCell>
        <mxCell id="5Mt-i5ctGpd2xIFihAlp-19" value="+&lt;u&gt;Identificador Unico&lt;/u&gt;&lt;br&gt;+Codigo Grupo&lt;br&gt;+Tiempo Imparte&lt;div&gt;+Aula Imparte&lt;/div&gt;" style="align=left;strokeColor=none;fillColor=none;spacingLeft=4;fontSize=12;verticalAlign=top;resizable=0;rotatable=0;part=1;html=1;" vertex="1" parent="5Mt-i5ctGpd2xIFihAlp-18">
          <mxGeometry y="50" width="160" height="70" as="geometry" />
        </mxCell>
        <mxCell id="5Mt-i5ctGpd2xIFihAlp-20" value="Asignaturas" style="swimlane;childLayout=stackLayout;horizontal=1;startSize=50;horizontalStack=0;rounded=1;fontSize=14;fontStyle=0;strokeWidth=2;resizeParent=0;resizeLast=1;shadow=0;dashed=0;align=center;arcSize=4;whiteSpace=wrap;html=1;" vertex="1" parent="1">
          <mxGeometry x="480" y="400" width="160" height="140" as="geometry" />
        </mxCell>
        <mxCell id="5Mt-i5ctGpd2xIFihAlp-21" value="+&lt;u&gt;Identificador Unico&lt;/u&gt;&lt;br&gt;+Nombre&lt;br&gt;+Tipo&lt;div&gt;+Creditos&lt;/div&gt;&lt;div&gt;+Temporada Imparte&lt;/div&gt;" style="align=left;strokeColor=none;fillColor=none;spacingLeft=4;fontSize=12;verticalAlign=top;resizable=0;rotatable=0;part=1;html=1;" vertex="1" parent="5Mt-i5ctGpd2xIFihAlp-20">
          <mxGeometry y="50" width="160" height="90" as="geometry" />
        </mxCell>
        <mxCell id="5Mt-i5ctGpd2xIFihAlp-22" value="Alumnos" style="swimlane;childLayout=stackLayout;horizontal=1;startSize=50;horizontalStack=0;rounded=1;fontSize=14;fontStyle=0;strokeWidth=2;resizeParent=0;resizeLast=1;shadow=0;dashed=0;align=center;arcSize=4;whiteSpace=wrap;html=1;" vertex="1" parent="1">
          <mxGeometry x="40" y="400" width="160" height="140" as="geometry" />
        </mxCell>
        <mxCell id="5Mt-i5ctGpd2xIFihAlp-23" value="+&lt;u&gt;Matricula&lt;/u&gt;&lt;br&gt;+DNI&lt;br&gt;+Nombre&lt;div&gt;+Mail&lt;/div&gt;&lt;div&gt;+Fecha de Ingreso&lt;/div&gt;" style="align=left;strokeColor=none;fillColor=none;spacingLeft=4;fontSize=12;verticalAlign=top;resizable=0;rotatable=0;part=1;html=1;" vertex="1" parent="5Mt-i5ctGpd2xIFihAlp-22">
          <mxGeometry y="50" width="160" height="90" as="geometry" />
        </mxCell>
        <mxCell id="5Mt-i5ctGpd2xIFihAlp-24" value="Profesores" style="swimlane;childLayout=stackLayout;horizontal=1;startSize=50;horizontalStack=0;rounded=1;fontSize=14;fontStyle=0;strokeWidth=2;resizeParent=0;resizeLast=1;shadow=0;dashed=0;align=center;arcSize=4;whiteSpace=wrap;html=1;" vertex="1" parent="1">
          <mxGeometry x="920" y="400" width="160" height="120" as="geometry" />
        </mxCell>
        <mxCell id="5Mt-i5ctGpd2xIFihAlp-25" value="+&lt;u&gt;DNI&lt;/u&gt;&lt;br&gt;+Nombre&lt;br&gt;+Mail&lt;div&gt;+Ciudad Nacimiento&lt;/div&gt;" style="align=left;strokeColor=none;fillColor=none;spacingLeft=4;fontSize=12;verticalAlign=top;resizable=0;rotatable=0;part=1;html=1;" vertex="1" parent="5Mt-i5ctGpd2xIFihAlp-24">
          <mxGeometry y="50" width="160" height="70" as="geometry" />
        </mxCell>
        <mxCell id="5Mt-i5ctGpd2xIFihAlp-28" value="Tiene" style="shape=rhombus;perimeter=rhombusPerimeter;whiteSpace=wrap;html=1;align=center;" vertex="1" parent="1">
          <mxGeometry x="280" y="130" width="120" height="60" as="geometry" />
        </mxCell>
        <mxCell id="5Mt-i5ctGpd2xIFihAlp-29" value="" style="endArrow=none;html=1;rounded=0;entryX=0;entryY=0.5;entryDx=0;entryDy=0;exitX=1;exitY=0.25;exitDx=0;exitDy=0;" edge="1" parent="1" source="5Mt-i5ctGpd2xIFihAlp-15" target="5Mt-i5ctGpd2xIFihAlp-28">
          <mxGeometry relative="1" as="geometry">
            <mxPoint x="240" y="200" as="sourcePoint" />
            <mxPoint x="390" y="229" as="targetPoint" />
          </mxGeometry>
        </mxCell>
        <mxCell id="5Mt-i5ctGpd2xIFihAlp-30" value="1,1" style="text;strokeColor=none;fillColor=none;spacingLeft=4;spacingRight=4;overflow=hidden;rotatable=0;points=[[0,0.5],[1,0.5]];portConstraint=eastwest;fontSize=12;whiteSpace=wrap;html=1;" vertex="1" parent="1">
          <mxGeometry x="220" y="125" width="40" height="30" as="geometry" />
        </mxCell>
        <mxCell id="5Mt-i5ctGpd2xIFihAlp-31" value="" style="endArrow=none;html=1;rounded=0;exitX=1;exitY=0.5;exitDx=0;exitDy=0;entryX=0;entryY=0.25;entryDx=0;entryDy=0;" edge="1" parent="1" source="5Mt-i5ctGpd2xIFihAlp-28" target="5Mt-i5ctGpd2xIFihAlp-17">
          <mxGeometry relative="1" as="geometry">
            <mxPoint x="380" y="270" as="sourcePoint" />
            <mxPoint x="470" y="170" as="targetPoint" />
          </mxGeometry>
        </mxCell>
        <mxCell id="5Mt-i5ctGpd2xIFihAlp-32" value="1,n" style="text;strokeColor=none;fillColor=none;spacingLeft=4;spacingRight=4;overflow=hidden;rotatable=0;points=[[0,0.5],[1,0.5]];portConstraint=eastwest;fontSize=12;whiteSpace=wrap;html=1;" vertex="1" parent="1">
          <mxGeometry x="420" y="120" width="40" height="30" as="geometry" />
        </mxCell>
        <mxCell id="5Mt-i5ctGpd2xIFihAlp-34" value="Contiene" style="shape=rhombus;perimeter=rhombusPerimeter;whiteSpace=wrap;html=1;align=center;" vertex="1" parent="1">
          <mxGeometry x="710" y="130" width="120" height="60" as="geometry" />
        </mxCell>
        <mxCell id="5Mt-i5ctGpd2xIFihAlp-35" value="" style="endArrow=none;html=1;rounded=0;exitX=1;exitY=0.25;exitDx=0;exitDy=0;entryX=0;entryY=0.5;entryDx=0;entryDy=0;" edge="1" parent="1" source="5Mt-i5ctGpd2xIFihAlp-17" target="5Mt-i5ctGpd2xIFihAlp-34">
          <mxGeometry relative="1" as="geometry">
            <mxPoint x="660" y="180" as="sourcePoint" />
            <mxPoint x="690" y="155" as="targetPoint" />
          </mxGeometry>
        </mxCell>
        <mxCell id="5Mt-i5ctGpd2xIFihAlp-36" value="1,1" style="text;strokeColor=none;fillColor=none;spacingLeft=4;spacingRight=4;overflow=hidden;rotatable=0;points=[[0,0.5],[1,0.5]];portConstraint=eastwest;fontSize=12;whiteSpace=wrap;html=1;" vertex="1" parent="1">
          <mxGeometry x="660" y="125" width="40" height="30" as="geometry" />
        </mxCell>
        <mxCell id="5Mt-i5ctGpd2xIFihAlp-37" value="" style="endArrow=none;html=1;rounded=0;exitX=1;exitY=0.5;exitDx=0;exitDy=0;entryX=-0.012;entryY=0.377;entryDx=0;entryDy=0;entryPerimeter=0;" edge="1" parent="1" source="5Mt-i5ctGpd2xIFihAlp-34" target="5Mt-i5ctGpd2xIFihAlp-19">
          <mxGeometry relative="1" as="geometry">
            <mxPoint x="710" y="250" as="sourcePoint" />
            <mxPoint x="870" y="140" as="targetPoint" />
          </mxGeometry>
        </mxCell>
        <mxCell id="5Mt-i5ctGpd2xIFihAlp-38" value="1,n" style="text;strokeColor=none;fillColor=none;spacingLeft=4;spacingRight=4;overflow=hidden;rotatable=0;points=[[0,0.5],[1,0.5]];portConstraint=eastwest;fontSize=12;whiteSpace=wrap;html=1;" vertex="1" parent="1">
          <mxGeometry x="850" y="120" width="40" height="30" as="geometry" />
        </mxCell>
        <mxCell id="5Mt-i5ctGpd2xIFihAlp-39" value="1:N" style="text;strokeColor=none;fillColor=none;spacingLeft=4;spacingRight=4;overflow=hidden;rotatable=0;points=[[0,0.5],[1,0.5]];portConstraint=eastwest;fontSize=12;whiteSpace=wrap;html=1;" vertex="1" parent="1">
          <mxGeometry x="320" y="95" width="40" height="30" as="geometry" />
        </mxCell>
        <mxCell id="5Mt-i5ctGpd2xIFihAlp-40" value="1:N" style="text;strokeColor=none;fillColor=none;spacingLeft=4;spacingRight=4;overflow=hidden;rotatable=0;points=[[0,0.5],[1,0.5]];portConstraint=eastwest;fontSize=12;whiteSpace=wrap;html=1;" vertex="1" parent="1">
          <mxGeometry x="750" y="95" width="40" height="30" as="geometry" />
        </mxCell>
        <mxCell id="5Mt-i5ctGpd2xIFihAlp-41" value="Tener" style="shape=rhombus;perimeter=rhombusPerimeter;whiteSpace=wrap;html=1;align=center;rotation=0;" vertex="1" parent="1">
          <mxGeometry x="500" y="280" width="120" height="60" as="geometry" />
        </mxCell>
        <mxCell id="5Mt-i5ctGpd2xIFihAlp-42" value="" style="endArrow=none;html=1;rounded=0;exitX=0.5;exitY=0;exitDx=0;exitDy=0;entryX=0.5;entryY=1;entryDx=0;entryDy=0;" edge="1" parent="1" source="5Mt-i5ctGpd2xIFihAlp-20" target="5Mt-i5ctGpd2xIFihAlp-41">
          <mxGeometry relative="1" as="geometry">
            <mxPoint x="420" y="470" as="sourcePoint" />
            <mxPoint x="460" y="370" as="targetPoint" />
          </mxGeometry>
        </mxCell>
        <mxCell id="5Mt-i5ctGpd2xIFihAlp-43" value="" style="endArrow=none;html=1;rounded=0;exitX=0.5;exitY=0;exitDx=0;exitDy=0;entryX=0.5;entryY=1;entryDx=0;entryDy=0;" edge="1" parent="1" source="5Mt-i5ctGpd2xIFihAlp-41" target="5Mt-i5ctGpd2xIFihAlp-17">
          <mxGeometry relative="1" as="geometry">
            <mxPoint x="430" y="260" as="sourcePoint" />
            <mxPoint x="530" y="240" as="targetPoint" />
          </mxGeometry>
        </mxCell>
        <mxCell id="5Mt-i5ctGpd2xIFihAlp-44" value="1,1" style="text;strokeColor=none;fillColor=none;spacingLeft=4;spacingRight=4;overflow=hidden;rotatable=0;points=[[0,0.5],[1,0.5]];portConstraint=eastwest;fontSize=12;whiteSpace=wrap;html=1;" vertex="1" parent="1">
          <mxGeometry x="520" y="240" width="40" height="30" as="geometry" />
        </mxCell>
        <mxCell id="5Mt-i5ctGpd2xIFihAlp-45" value="1,n" style="text;strokeColor=none;fillColor=none;spacingLeft=4;spacingRight=4;overflow=hidden;rotatable=0;points=[[0,0.5],[1,0.5]];portConstraint=eastwest;fontSize=12;whiteSpace=wrap;html=1;" vertex="1" parent="1">
          <mxGeometry x="520" y="350" width="40" height="30" as="geometry" />
        </mxCell>
        <mxCell id="5Mt-i5ctGpd2xIFihAlp-49" value="Matricular" style="shape=rhombus;perimeter=rhombusPerimeter;whiteSpace=wrap;html=1;align=center;rotation=0;" vertex="1" parent="1">
          <mxGeometry x="280" y="450" width="120" height="60" as="geometry" />
        </mxCell>
        <mxCell id="5Mt-i5ctGpd2xIFihAlp-51" value="" style="endArrow=none;html=1;rounded=0;exitX=1;exitY=0.5;exitDx=0;exitDy=0;entryX=0.003;entryY=0.347;entryDx=0;entryDy=0;entryPerimeter=0;" edge="1" parent="1" source="5Mt-i5ctGpd2xIFihAlp-49" target="5Mt-i5ctGpd2xIFihAlp-21">
          <mxGeometry relative="1" as="geometry">
            <mxPoint x="530" y="500" as="sourcePoint" />
            <mxPoint x="450" y="480" as="targetPoint" />
          </mxGeometry>
        </mxCell>
        <mxCell id="5Mt-i5ctGpd2xIFihAlp-52" value="" style="endArrow=none;html=1;rounded=0;exitX=0;exitY=0.5;exitDx=0;exitDy=0;entryX=1;entryY=0.333;entryDx=0;entryDy=0;entryPerimeter=0;" edge="1" parent="1" source="5Mt-i5ctGpd2xIFihAlp-49" target="5Mt-i5ctGpd2xIFihAlp-23">
          <mxGeometry relative="1" as="geometry">
            <mxPoint x="530" y="500" as="sourcePoint" />
            <mxPoint x="210" y="480" as="targetPoint" />
          </mxGeometry>
        </mxCell>
        <mxCell id="5Mt-i5ctGpd2xIFihAlp-53" value="1,n" style="text;strokeColor=none;fillColor=none;spacingLeft=4;spacingRight=4;overflow=hidden;rotatable=0;points=[[0,0.5],[1,0.5]];portConstraint=eastwest;fontSize=12;whiteSpace=wrap;html=1;" vertex="1" parent="1">
          <mxGeometry x="230" y="440" width="40" height="30" as="geometry" />
        </mxCell>
        <mxCell id="5Mt-i5ctGpd2xIFihAlp-55" value="N:N" style="text;strokeColor=none;fillColor=none;spacingLeft=4;spacingRight=4;overflow=hidden;rotatable=0;points=[[0,0.5],[1,0.5]];portConstraint=eastwest;fontSize=12;whiteSpace=wrap;html=1;" vertex="1" parent="1">
          <mxGeometry x="320" y="410" width="40" height="30" as="geometry" />
        </mxCell>
        <mxCell id="5Mt-i5ctGpd2xIFihAlp-56" value="Impartir" style="shape=rhombus;perimeter=rhombusPerimeter;whiteSpace=wrap;html=1;align=center;rotation=0;" vertex="1" parent="1">
          <mxGeometry x="720" y="450" width="120" height="60" as="geometry" />
        </mxCell>
        <mxCell id="5Mt-i5ctGpd2xIFihAlp-57" value="" style="endArrow=none;html=1;rounded=0;entryX=0;entryY=0.5;entryDx=0;entryDy=0;exitX=0.998;exitY=0.338;exitDx=0;exitDy=0;exitPerimeter=0;" edge="1" parent="1" source="5Mt-i5ctGpd2xIFihAlp-21" target="5Mt-i5ctGpd2xIFihAlp-56">
          <mxGeometry relative="1" as="geometry">
            <mxPoint x="670" y="470" as="sourcePoint" />
            <mxPoint x="740" y="610" as="targetPoint" />
          </mxGeometry>
        </mxCell>
        <mxCell id="5Mt-i5ctGpd2xIFihAlp-59" value="1,n" style="text;strokeColor=none;fillColor=none;spacingLeft=4;spacingRight=4;overflow=hidden;rotatable=0;points=[[0,0.5],[1,0.5]];portConstraint=eastwest;fontSize=12;whiteSpace=wrap;html=1;" vertex="1" parent="1">
          <mxGeometry x="670" y="440" width="40" height="30" as="geometry" />
        </mxCell>
        <mxCell id="5Mt-i5ctGpd2xIFihAlp-60" value="1,1" style="text;strokeColor=none;fillColor=none;spacingLeft=4;spacingRight=4;overflow=hidden;rotatable=0;points=[[0,0.5],[1,0.5]];portConstraint=eastwest;fontSize=12;whiteSpace=wrap;html=1;" vertex="1" parent="1">
          <mxGeometry x="860" y="440" width="40" height="30" as="geometry" />
        </mxCell>
        <mxCell id="5Mt-i5ctGpd2xIFihAlp-61" value="N:1" style="text;strokeColor=none;fillColor=none;spacingLeft=4;spacingRight=4;overflow=hidden;rotatable=0;points=[[0,0.5],[1,0.5]];portConstraint=eastwest;fontSize=12;whiteSpace=wrap;html=1;" vertex="1" parent="1">
          <mxGeometry x="770" y="410" width="40" height="30" as="geometry" />
        </mxCell>
        <mxCell id="5Mt-i5ctGpd2xIFihAlp-63" value="1,n" style="text;strokeColor=none;fillColor=none;spacingLeft=4;spacingRight=4;overflow=hidden;rotatable=0;points=[[0,0.5],[1,0.5]];portConstraint=eastwest;fontSize=12;whiteSpace=wrap;html=1;" vertex="1" parent="1">
          <mxGeometry x="420" y="440" width="40" height="30" as="geometry" />
        </mxCell>
        <mxCell id="5Mt-i5ctGpd2xIFihAlp-64" value="" style="endArrow=none;html=1;rounded=0;exitX=1;exitY=0.5;exitDx=0;exitDy=0;entryX=0.013;entryY=0.4;entryDx=0;entryDy=0;entryPerimeter=0;" edge="1" parent="1" source="5Mt-i5ctGpd2xIFihAlp-56" target="5Mt-i5ctGpd2xIFihAlp-25">
          <mxGeometry relative="1" as="geometry">
            <mxPoint x="720" y="360" as="sourcePoint" />
            <mxPoint x="880" y="360" as="targetPoint" />
          </mxGeometry>
        </mxCell>
        <mxCell id="5Mt-i5ctGpd2xIFihAlp-65" value="1:N" style="text;strokeColor=none;fillColor=none;spacingLeft=4;spacingRight=4;overflow=hidden;rotatable=0;points=[[0,0.5],[1,0.5]];portConstraint=eastwest;fontSize=12;whiteSpace=wrap;html=1;" vertex="1" parent="1">
          <mxGeometry x="630" y="290" width="40" height="30" as="geometry" />
        </mxCell>
      </root>
    </mxGraphModel>
  </diagram>
</mxfile>
